<svg xmlns="http://www.w3.org/2000/svg" xmlns:xlink="http://www.w3.org/1999/xlink" width="200" zoomAndPan="magnify" viewBox="0 0 150 30.000001" height="40" preserveAspectRatio="xMidYMid meet" version="1.0"><defs><g/><clipPath id="ea16917a96"><path d="M 2.417969 0 L 147.578125 0 L 147.578125 29.03125 L 2.417969 29.03125 Z M 2.417969 0 " clip-rule="nonzero"/></clipPath><clipPath id="ca3981ce9d"><path d="M 5.324219 1.890625 L 29.273438 1.890625 L 29.273438 28.019531 L 5.324219 28.019531 Z M 5.324219 1.890625 " clip-rule="nonzero"/></clipPath><clipPath id="81bc0dd8d2"><path d="M 17 11 L 29.273438 11 L 29.273438 19 L 17 19 Z M 17 11 " clip-rule="nonzero"/></clipPath><clipPath id="af753e736b"><path d="M 25 11 L 29.273438 11 L 29.273438 25 L 25 25 Z M 25 11 " clip-rule="nonzero"/></clipPath></defs><g clip-path="url(#ea16917a96)"><path fill="#ffffff" d="M 2.417969 0 L 147.582031 0 L 147.582031 29.03125 L 2.417969 29.03125 Z M 2.417969 0 " fill-opacity="1" fill-rule="nonzero"/><path fill="#0d0a0b" d="M 2.417969 0 L 147.582031 0 L 147.582031 29.03125 L 2.417969 29.03125 Z M 2.417969 0 " fill-opacity="1" fill-rule="nonzero"/></g><g fill="#ffffff" fill-opacity="1"><g transform="translate(38.096783, 21.380564)"><g><path d="M 9.328125 0.34375 C 8.109375 0.34375 6.976562 0.132812 5.9375 -0.28125 C 4.90625 -0.707031 4.007812 -1.296875 3.25 -2.046875 C 2.5 -2.804688 1.910156 -3.707031 1.484375 -4.75 C 1.066406 -5.789062 0.859375 -6.921875 0.859375 -8.140625 C 0.859375 -9.359375 1.070312 -10.488281 1.5 -11.53125 C 1.925781 -12.570312 2.515625 -13.472656 3.265625 -14.234375 C 4.023438 -14.992188 4.921875 -15.585938 5.953125 -16.015625 C 6.984375 -16.453125 8.101562 -16.671875 9.3125 -16.671875 C 10.582031 -16.671875 11.757812 -16.425781 12.84375 -15.9375 C 13.9375 -15.445312 14.878906 -14.75 15.671875 -13.84375 L 13.1875 -11.4375 C 12.71875 -11.988281 12.160156 -12.421875 11.515625 -12.734375 C 10.867188 -13.054688 10.164062 -13.21875 9.40625 -13.21875 C 8.707031 -13.21875 8.066406 -13.085938 7.484375 -12.828125 C 6.898438 -12.578125 6.390625 -12.226562 5.953125 -11.78125 C 5.523438 -11.332031 5.191406 -10.800781 4.953125 -10.1875 C 4.722656 -9.570312 4.609375 -8.90625 4.609375 -8.1875 C 4.609375 -7.457031 4.726562 -6.78125 4.96875 -6.15625 C 5.21875 -5.539062 5.554688 -5.003906 5.984375 -4.546875 C 6.410156 -4.097656 6.925781 -3.75 7.53125 -3.5 C 8.132812 -3.25 8.789062 -3.125 9.5 -3.125 C 10.28125 -3.125 10.992188 -3.285156 11.640625 -3.609375 C 12.296875 -3.929688 12.851562 -4.367188 13.3125 -4.921875 L 15.796875 -2.5625 C 15.015625 -1.632812 14.070312 -0.914062 12.96875 -0.40625 C 11.875 0.09375 10.660156 0.34375 9.328125 0.34375 Z M 9.328125 0.34375 "/></g></g></g><g fill="#ffffff" fill-opacity="1"><g transform="translate(54.376771, 21.380564)"><g><path d="M 6.75 0.34375 C 5.90625 0.34375 5.117188 0.191406 4.390625 -0.109375 C 3.660156 -0.421875 3.019531 -0.84375 2.46875 -1.375 C 1.925781 -1.914062 1.5 -2.546875 1.1875 -3.265625 C 0.882812 -3.992188 0.734375 -4.773438 0.734375 -5.609375 C 0.734375 -6.429688 0.882812 -7.203125 1.1875 -7.921875 C 1.5 -8.648438 1.925781 -9.28125 2.46875 -9.8125 C 3.019531 -10.351562 3.660156 -10.773438 4.390625 -11.078125 C 5.117188 -11.390625 5.90625 -11.546875 6.75 -11.546875 C 7.59375 -11.546875 8.378906 -11.390625 9.109375 -11.078125 C 9.847656 -10.773438 10.488281 -10.351562 11.03125 -9.8125 C 11.570312 -9.28125 11.992188 -8.648438 12.296875 -7.921875 C 12.609375 -7.203125 12.765625 -6.429688 12.765625 -5.609375 C 12.765625 -4.773438 12.609375 -3.992188 12.296875 -3.265625 C 11.992188 -2.546875 11.570312 -1.914062 11.03125 -1.375 C 10.488281 -0.84375 9.847656 -0.421875 9.109375 -0.109375 C 8.378906 0.191406 7.59375 0.34375 6.75 0.34375 Z M 6.75 -2.75 C 7.550781 -2.75 8.195312 -3.015625 8.6875 -3.546875 C 9.1875 -4.078125 9.4375 -4.769531 9.4375 -5.625 C 9.4375 -6.457031 9.1875 -7.132812 8.6875 -7.65625 C 8.195312 -8.1875 7.550781 -8.453125 6.75 -8.453125 C 5.957031 -8.453125 5.3125 -8.1875 4.8125 -7.65625 C 4.320312 -7.132812 4.078125 -6.457031 4.078125 -5.625 C 4.078125 -4.769531 4.320312 -4.078125 4.8125 -3.546875 C 5.3125 -3.015625 5.957031 -2.75 6.75 -2.75 Z M 6.75 -2.75 "/></g></g></g><g fill="#ffffff" fill-opacity="1"><g transform="translate(67.878437, 21.380564)"><g><path d="M 1.34375 -11.21875 L 4.484375 -11.21875 L 4.484375 -9.875 C 4.867188 -10.40625 5.332031 -10.816406 5.875 -11.109375 C 6.425781 -11.398438 7.023438 -11.546875 7.671875 -11.546875 C 8.273438 -11.546875 8.835938 -11.425781 9.359375 -11.1875 C 9.878906 -10.957031 10.328125 -10.632812 10.703125 -10.21875 C 11.078125 -9.8125 11.367188 -9.328125 11.578125 -8.765625 C 11.785156 -8.203125 11.890625 -7.597656 11.890625 -6.953125 L 11.890625 0 L 8.625 0 L 8.625 -6.140625 C 8.625 -6.890625 8.445312 -7.484375 8.09375 -7.921875 C 7.738281 -8.359375 7.25 -8.578125 6.625 -8.578125 C 6.007812 -8.578125 5.519531 -8.347656 5.15625 -7.890625 C 4.789062 -7.441406 4.609375 -6.832031 4.609375 -6.0625 L 4.609375 0 L 1.34375 0 Z M 1.34375 -11.21875 "/></g></g></g><g fill="#ffffff" fill-opacity="1"><g transform="translate(80.990165, 21.380564)"><g><path d="M 6.828125 0.34375 C 5.960938 0.34375 5.160156 0.191406 4.421875 -0.109375 C 3.679688 -0.410156 3.035156 -0.828125 2.484375 -1.359375 C 1.929688 -1.898438 1.5 -2.53125 1.1875 -3.25 C 0.882812 -3.976562 0.734375 -4.753906 0.734375 -5.578125 C 0.734375 -6.421875 0.882812 -7.203125 1.1875 -7.921875 C 1.5 -8.648438 1.929688 -9.28125 2.484375 -9.8125 C 3.035156 -10.351562 3.6875 -10.773438 4.4375 -11.078125 C 5.1875 -11.390625 5.988281 -11.546875 6.84375 -11.546875 C 7.820312 -11.546875 8.734375 -11.347656 9.578125 -10.953125 C 10.421875 -10.554688 11.132812 -9.992188 11.71875 -9.265625 L 9.453125 -7.09375 C 8.753906 -8 7.882812 -8.453125 6.84375 -8.453125 C 6.019531 -8.453125 5.351562 -8.1875 4.84375 -7.65625 C 4.332031 -7.132812 4.078125 -6.457031 4.078125 -5.625 C 4.078125 -4.769531 4.332031 -4.078125 4.84375 -3.546875 C 5.363281 -3.015625 6.039062 -2.75 6.875 -2.75 C 7.925781 -2.75 8.828125 -3.222656 9.578125 -4.171875 L 11.84375 -1.96875 C 11.257812 -1.257812 10.53125 -0.695312 9.65625 -0.28125 C 8.789062 0.132812 7.847656 0.34375 6.828125 0.34375 Z M 6.828125 0.34375 "/></g></g></g><g fill="#ffffff" fill-opacity="1"><g transform="translate(93.322019, 21.380564)"><g><path d="M 1.390625 -11.21875 L 4.65625 -11.21875 L 4.65625 0 L 1.390625 0 Z M 3.015625 -12.9375 C 2.484375 -12.9375 2.03125 -13.125 1.65625 -13.5 C 1.28125 -13.875 1.09375 -14.332031 1.09375 -14.875 C 1.09375 -15.394531 1.28125 -15.835938 1.65625 -16.203125 C 2.03125 -16.578125 2.484375 -16.765625 3.015625 -16.765625 C 3.554688 -16.765625 4.007812 -16.578125 4.375 -16.203125 C 4.738281 -15.835938 4.921875 -15.394531 4.921875 -14.875 C 4.921875 -14.332031 4.738281 -13.875 4.375 -13.5 C 4.007812 -13.125 3.554688 -12.9375 3.015625 -12.9375 Z M 3.015625 -12.9375 "/></g></g></g><g fill="#ffffff" fill-opacity="1"><g transform="translate(99.341718, 21.380564)"><g><path d="M 5.609375 0.34375 C 4.566406 0.34375 3.585938 0.171875 2.671875 -0.171875 C 1.765625 -0.515625 0.992188 -1.007812 0.359375 -1.65625 L 2.140625 -3.90625 C 2.710938 -3.363281 3.300781 -2.953125 3.90625 -2.671875 C 4.519531 -2.398438 5.128906 -2.265625 5.734375 -2.265625 C 6.203125 -2.265625 6.5625 -2.335938 6.8125 -2.484375 C 7.0625 -2.628906 7.1875 -2.84375 7.1875 -3.125 C 7.1875 -3.394531 7.019531 -3.613281 6.6875 -3.78125 C 6.351562 -3.957031 5.765625 -4.132812 4.921875 -4.3125 C 2.335938 -4.894531 1.046875 -6.085938 1.046875 -7.890625 C 1.046875 -8.429688 1.15625 -8.925781 1.375 -9.375 C 1.59375 -9.832031 1.90625 -10.21875 2.3125 -10.53125 C 2.71875 -10.851562 3.203125 -11.101562 3.765625 -11.28125 C 4.335938 -11.457031 4.972656 -11.546875 5.671875 -11.546875 C 6.554688 -11.546875 7.40625 -11.40625 8.21875 -11.125 C 9.039062 -10.84375 9.78125 -10.414062 10.4375 -9.84375 L 8.78125 -7.578125 C 8.1875 -8.085938 7.632812 -8.441406 7.125 -8.640625 C 6.613281 -8.847656 6.109375 -8.953125 5.609375 -8.953125 C 4.773438 -8.953125 4.359375 -8.707031 4.359375 -8.21875 C 4.359375 -7.957031 4.515625 -7.742188 4.828125 -7.578125 C 5.148438 -7.421875 5.734375 -7.242188 6.578125 -7.046875 C 7.929688 -6.722656 8.921875 -6.253906 9.546875 -5.640625 C 10.179688 -5.035156 10.5 -4.273438 10.5 -3.359375 C 10.5 -2.796875 10.378906 -2.285156 10.140625 -1.828125 C 9.910156 -1.367188 9.582031 -0.976562 9.15625 -0.65625 C 8.738281 -0.34375 8.222656 -0.0976562 7.609375 0.078125 C 7.003906 0.253906 6.335938 0.34375 5.609375 0.34375 Z M 5.609375 0.34375 "/></g></g></g><g fill="#ffffff" fill-opacity="1"><g transform="translate(110.576867, 21.380564)"><g><path d="M 1.390625 -11.21875 L 4.65625 -11.21875 L 4.65625 0 L 1.390625 0 Z M 3.015625 -12.9375 C 2.484375 -12.9375 2.03125 -13.125 1.65625 -13.5 C 1.28125 -13.875 1.09375 -14.332031 1.09375 -14.875 C 1.09375 -15.394531 1.28125 -15.835938 1.65625 -16.203125 C 2.03125 -16.578125 2.484375 -16.765625 3.015625 -16.765625 C 3.554688 -16.765625 4.007812 -16.578125 4.375 -16.203125 C 4.738281 -15.835938 4.921875 -15.394531 4.921875 -14.875 C 4.921875 -14.332031 4.738281 -13.875 4.375 -13.5 C 4.007812 -13.125 3.554688 -12.9375 3.015625 -12.9375 Z M 3.015625 -12.9375 "/></g></g></g><g fill="#ffffff" fill-opacity="1"><g transform="translate(116.596566, 21.380564)"><g><path d="M 2.1875 -8.578125 L 0.484375 -8.578125 L 0.484375 -11.21875 L 2.1875 -11.21875 L 2.1875 -12.875 C 2.1875 -14.25 2.5625 -15.332031 3.3125 -16.125 C 4.070312 -16.914062 5.097656 -17.3125 6.390625 -17.3125 C 7.671875 -17.3125 8.78125 -16.882812 9.71875 -16.03125 L 8.09375 -13.765625 C 7.863281 -14.023438 7.640625 -14.203125 7.421875 -14.296875 C 7.203125 -14.398438 6.972656 -14.453125 6.734375 -14.453125 C 5.878906 -14.453125 5.453125 -13.929688 5.453125 -12.890625 L 5.453125 -11.21875 L 8.625 -11.21875 L 8.625 -8.578125 L 5.453125 -8.578125 L 5.453125 0 L 2.1875 0 Z M 2.1875 -8.578125 "/></g></g></g><g fill="#ffffff" fill-opacity="1"><g transform="translate(125.467694, 21.380564)"><g><path d="M 4.09375 0.21875 L 0 -11.21875 L 3.515625 -11.21875 L 5.953125 -4.125 L 8.34375 -11.21875 L 11.671875 -11.21875 L 5.234375 6.09375 L 1.90625 6.09375 Z M 4.09375 0.21875 "/></g></g></g><g fill="#00d9d2" fill-opacity="1"><g transform="translate(137.146681, 21.380564)"><g><path d="M 3.4375 0.21875 C 2.882812 0.21875 2.414062 0.03125 2.03125 -0.34375 C 1.65625 -0.726562 1.46875 -1.195312 1.46875 -1.75 C 1.46875 -2.320312 1.65625 -2.796875 2.03125 -3.171875 C 2.414062 -3.554688 2.882812 -3.75 3.4375 -3.75 C 4.007812 -3.75 4.476562 -3.554688 4.84375 -3.171875 C 5.21875 -2.796875 5.40625 -2.320312 5.40625 -1.75 C 5.40625 -1.195312 5.21875 -0.726562 4.84375 -0.34375 C 4.476562 0.03125 4.007812 0.21875 3.4375 0.21875 Z M 3.4375 0.21875 "/></g></g></g><g clip-path="url(#ca3981ce9d)"><path fill="#ffffff" d="M 11.238281 14.957031 C 11.238281 10.152344 14.59375 6.875 19.503906 6.875 C 21.359375 6.875 22.988281 7.347656 24.449219 8.347656 L 29.320312 5.75 C 26.871094 3.226562 23.375 1.894531 19.214844 1.894531 C 11.167969 1.894531 5.324219 7.34375 5.324219 14.957031 C 5.324219 22.566406 11.167969 28.015625 19.214844 28.015625 C 22.265625 28.015625 24.957031 27.300781 27.140625 25.929688 L 24.441406 21.5625 C 22.984375 22.5625 21.359375 23.035156 19.5 23.035156 C 14.59375 23.035156 11.238281 19.757812 11.238281 14.957031 Z M 11.238281 14.957031 " fill-opacity="1" fill-rule="evenodd"/></g><g clip-path="url(#81bc0dd8d2)"><path fill="#00d9d2" d="M 25.253906 18.222656 L 29.320312 11.710938 L 17.050781 18.257812 L 23.980469 18.230469 Z M 25.253906 18.222656 " fill-opacity="1" fill-rule="evenodd"/></g><g clip-path="url(#af753e736b)"><path fill="#008c87" d="M 29.320312 11.710938 L 25.253906 18.222656 L 29.320312 24.808594 Z M 29.320312 11.710938 " fill-opacity="1" fill-rule="evenodd"/></g></svg>