<svg xmlns="http://www.w3.org/2000/svg" xmlns:xlink="http://www.w3.org/1999/xlink" width="200" zoomAndPan="magnify" viewBox="0 0 150 30.000001" height="40" preserveAspectRatio="xMidYMid meet" version="1.0"><defs><g/><clipPath id="1babc639f7"><path d="M 7.65625 2.507812 L 29.566406 2.507812 L 29.566406 23.128906 L 7.65625 23.128906 Z M 7.65625 2.507812 " clip-rule="nonzero"/></clipPath><clipPath id="d70127883a"><path d="M 9.105469 2.507812 L 28.035156 2.507812 C 28.835938 2.507812 29.488281 3.15625 29.488281 3.957031 L 29.488281 21.675781 C 29.488281 22.476562 28.835938 23.128906 28.035156 23.128906 L 9.105469 23.128906 C 8.304688 23.128906 7.65625 22.476562 7.65625 21.675781 L 7.65625 3.957031 C 7.65625 3.15625 8.304688 2.507812 9.105469 2.507812 Z M 9.105469 2.507812 " clip-rule="nonzero"/></clipPath><clipPath id="68378407e9"><path d="M 10.828125 8.710938 L 26.070312 8.710938 L 26.070312 20.324219 L 10.828125 20.324219 Z M 10.828125 8.710938 " clip-rule="nonzero"/></clipPath></defs><g fill="#23d3d3" fill-opacity="1"><g transform="translate(33.925632, 19.539546)"><g><path d="M 2.96875 0 C 2.6875 0 2.445312 -0.09375 2.25 -0.28125 C 2.0625 -0.476562 1.96875 -0.726562 1.96875 -1.03125 L 1.96875 -14.359375 C 1.96875 -14.660156 2.0625 -14.90625 2.25 -15.09375 C 2.445312 -15.289062 2.6875 -15.390625 2.96875 -15.390625 C 3.113281 -15.390625 3.257812 -15.351562 3.40625 -15.28125 C 3.550781 -15.207031 3.671875 -15.117188 3.765625 -15.015625 L 12.359375 -3.59375 L 12.359375 -14.359375 C 12.359375 -14.660156 12.453125 -14.90625 12.640625 -15.09375 C 12.835938 -15.289062 13.082031 -15.390625 13.375 -15.390625 C 13.664062 -15.390625 13.90625 -15.289062 14.09375 -15.09375 C 14.289062 -14.90625 14.390625 -14.660156 14.390625 -14.359375 L 14.390625 -1.03125 C 14.390625 -0.726562 14.289062 -0.476562 14.09375 -0.28125 C 13.90625 -0.09375 13.664062 0 13.375 0 C 13.226562 0 13.078125 -0.0234375 12.921875 -0.078125 C 12.773438 -0.140625 12.664062 -0.234375 12.59375 -0.359375 L 4 -11.78125 L 4 -1.03125 C 4 -0.738281 3.898438 -0.492188 3.703125 -0.296875 C 3.515625 -0.0976562 3.269531 0 2.96875 0 Z M 2.96875 0 "/></g></g></g><g fill="#23d3d3" fill-opacity="1"><g transform="translate(50.267191, 19.539546)"><g><path d="M 11.453125 -5.5625 C 11.453125 -5.3125 11.363281 -5.101562 11.1875 -4.9375 C 11.019531 -4.769531 10.804688 -4.6875 10.546875 -4.6875 L 3.046875 -4.6875 C 3.191406 -3.769531 3.609375 -3.023438 4.296875 -2.453125 C 4.992188 -1.890625 5.84375 -1.609375 6.84375 -1.609375 C 7.226562 -1.609375 7.632812 -1.679688 8.0625 -1.828125 C 8.488281 -1.972656 8.84375 -2.148438 9.125 -2.359375 C 9.300781 -2.503906 9.515625 -2.578125 9.765625 -2.578125 C 10.015625 -2.578125 10.210938 -2.515625 10.359375 -2.390625 C 10.597656 -2.191406 10.71875 -1.96875 10.71875 -1.71875 C 10.71875 -1.476562 10.613281 -1.28125 10.40625 -1.125 C 9.957031 -0.769531 9.398438 -0.476562 8.734375 -0.25 C 8.078125 -0.03125 7.445312 0.078125 6.84375 0.078125 C 5.757812 0.078125 4.789062 -0.148438 3.9375 -0.609375 C 3.082031 -1.078125 2.414062 -1.722656 1.9375 -2.546875 C 1.457031 -3.378906 1.21875 -4.320312 1.21875 -5.375 C 1.21875 -6.425781 1.441406 -7.367188 1.890625 -8.203125 C 2.347656 -9.035156 2.976562 -9.6875 3.78125 -10.15625 C 4.59375 -10.625 5.515625 -10.859375 6.546875 -10.859375 C 7.554688 -10.859375 8.425781 -10.632812 9.15625 -10.1875 C 9.894531 -9.738281 10.460938 -9.113281 10.859375 -8.3125 C 11.253906 -7.507812 11.453125 -6.59375 11.453125 -5.5625 Z M 6.546875 -9.15625 C 5.585938 -9.15625 4.804688 -8.890625 4.203125 -8.359375 C 3.609375 -7.835938 3.234375 -7.140625 3.078125 -6.265625 L 9.640625 -6.265625 C 9.515625 -7.140625 9.179688 -7.835938 8.640625 -8.359375 C 8.109375 -8.890625 7.410156 -9.15625 6.546875 -9.15625 Z M 6.546875 -9.15625 "/></g></g></g><g fill="#23d3d3" fill-opacity="1"><g transform="translate(62.493824, 19.539546)"><g><path d="M 13.21875 -10.78125 C 13.5 -10.78125 13.707031 -10.707031 13.84375 -10.5625 C 13.976562 -10.414062 14.046875 -10.21875 14.046875 -9.96875 C 14.046875 -9.757812 14.015625 -9.566406 13.953125 -9.390625 L 11.03125 -0.65625 C 10.96875 -0.46875 10.847656 -0.3125 10.671875 -0.1875 C 10.503906 -0.0625 10.316406 0 10.109375 0 C 9.878906 0 9.675781 -0.0625 9.5 -0.1875 C 9.320312 -0.3125 9.207031 -0.46875 9.15625 -0.65625 L 7.234375 -7.796875 L 5.203125 -0.65625 C 5.140625 -0.46875 5.019531 -0.3125 4.84375 -0.1875 C 4.664062 -0.0625 4.46875 0 4.25 0 C 4.039062 0 3.847656 -0.0625 3.671875 -0.1875 C 3.492188 -0.3125 3.375 -0.46875 3.3125 -0.65625 L 0.390625 -9.390625 C 0.335938 -9.566406 0.3125 -9.753906 0.3125 -9.953125 C 0.3125 -10.503906 0.585938 -10.78125 1.140625 -10.78125 C 1.390625 -10.78125 1.597656 -10.707031 1.765625 -10.5625 C 1.929688 -10.414062 2.066406 -10.1875 2.171875 -9.875 L 4.296875 -3.234375 L 6.3125 -10.03125 C 6.375 -10.25 6.484375 -10.425781 6.640625 -10.5625 C 6.804688 -10.707031 7.023438 -10.78125 7.296875 -10.78125 C 7.546875 -10.78125 7.75 -10.707031 7.90625 -10.5625 C 8.070312 -10.425781 8.1875 -10.25 8.25 -10.03125 L 10.03125 -3.09375 L 12.203125 -9.875 C 12.378906 -10.476562 12.71875 -10.78125 13.21875 -10.78125 Z M 13.21875 -10.78125 "/></g></g></g><g fill="#23d3d3" fill-opacity="1"><g transform="translate(76.827142, 19.539546)"><g><path d="M 5.6875 0.078125 C 4.800781 0.078125 3.960938 -0.0546875 3.171875 -0.328125 C 2.378906 -0.609375 1.757812 -0.972656 1.3125 -1.421875 C 1.144531 -1.585938 1.0625 -1.789062 1.0625 -2.03125 C 1.0625 -2.34375 1.191406 -2.597656 1.453125 -2.796875 C 1.703125 -2.984375 1.929688 -3.078125 2.140625 -3.078125 C 2.410156 -3.078125 2.660156 -2.957031 2.890625 -2.71875 C 3.140625 -2.445312 3.515625 -2.207031 4.015625 -2 C 4.515625 -1.789062 5.046875 -1.6875 5.609375 -1.6875 C 6.359375 -1.6875 6.941406 -1.8125 7.359375 -2.0625 C 7.773438 -2.3125 7.984375 -2.648438 7.984375 -3.078125 C 7.984375 -3.484375 7.78125 -3.820312 7.375 -4.09375 C 6.96875 -4.363281 6.273438 -4.585938 5.296875 -4.765625 C 2.773438 -5.253906 1.515625 -6.289062 1.515625 -7.875 C 1.515625 -8.519531 1.703125 -9.066406 2.078125 -9.515625 C 2.460938 -9.960938 2.960938 -10.296875 3.578125 -10.515625 C 4.203125 -10.742188 4.863281 -10.859375 5.5625 -10.859375 C 6.414062 -10.859375 7.175781 -10.71875 7.84375 -10.4375 C 8.519531 -10.164062 9.054688 -9.785156 9.453125 -9.296875 C 9.628906 -9.085938 9.71875 -8.878906 9.71875 -8.671875 C 9.71875 -8.441406 9.601562 -8.238281 9.375 -8.0625 C 9.226562 -7.957031 9.046875 -7.90625 8.828125 -7.90625 C 8.484375 -7.90625 8.175781 -8.03125 7.90625 -8.28125 C 7.570312 -8.582031 7.222656 -8.796875 6.859375 -8.921875 C 6.492188 -9.046875 6.046875 -9.109375 5.515625 -9.109375 C 4.910156 -9.109375 4.414062 -9.003906 4.03125 -8.796875 C 3.644531 -8.585938 3.453125 -8.300781 3.453125 -7.9375 C 3.453125 -7.675781 3.515625 -7.457031 3.640625 -7.28125 C 3.773438 -7.101562 4.023438 -6.9375 4.390625 -6.78125 C 4.765625 -6.632812 5.296875 -6.488281 5.984375 -6.34375 C 7.421875 -6.050781 8.4375 -5.648438 9.03125 -5.140625 C 9.632812 -4.628906 9.9375 -3.96875 9.9375 -3.15625 C 9.9375 -2.550781 9.769531 -2 9.4375 -1.5 C 9.101562 -1.007812 8.617188 -0.625 7.984375 -0.34375 C 7.347656 -0.0625 6.582031 0.078125 5.6875 0.078125 Z M 5.6875 0.078125 "/></g></g></g><g fill="#23d3d3" fill-opacity="1"><g transform="translate(87.518065, 19.539546)"><g><path d="M 3 0 C 2.707031 0 2.460938 -0.0976562 2.265625 -0.296875 C 2.066406 -0.492188 1.96875 -0.738281 1.96875 -1.03125 L 1.96875 -14.359375 C 1.96875 -14.660156 2.066406 -14.90625 2.265625 -15.09375 C 2.460938 -15.289062 2.707031 -15.390625 3 -15.390625 L 7.703125 -15.390625 C 8.585938 -15.390625 9.367188 -15.210938 10.046875 -14.859375 C 10.734375 -14.515625 11.269531 -14.03125 11.65625 -13.40625 C 12.039062 -12.78125 12.234375 -12.078125 12.234375 -11.296875 C 12.234375 -10.648438 12.054688 -10.066406 11.703125 -9.546875 C 11.359375 -9.035156 10.882812 -8.625 10.28125 -8.3125 C 11.175781 -8.101562 11.878906 -7.679688 12.390625 -7.046875 C 12.898438 -6.421875 13.15625 -5.625 13.15625 -4.65625 C 13.15625 -3.757812 12.941406 -2.957031 12.515625 -2.25 C 12.085938 -1.539062 11.488281 -0.988281 10.71875 -0.59375 C 9.957031 -0.195312 9.09375 0 8.125 0 Z M 7.703125 -9.0625 C 8.472656 -9.0625 9.09375 -9.25 9.5625 -9.625 C 10.03125 -10.007812 10.265625 -10.566406 10.265625 -11.296875 C 10.265625 -12.015625 10.03125 -12.5625 9.5625 -12.9375 C 9.09375 -13.3125 8.472656 -13.5 7.703125 -13.5 L 4.015625 -13.5 L 4.015625 -9.0625 Z M 8.125 -1.890625 C 9.039062 -1.890625 9.78125 -2.128906 10.34375 -2.609375 C 10.90625 -3.085938 11.1875 -3.769531 11.1875 -4.65625 C 11.1875 -5.46875 10.90625 -6.085938 10.34375 -6.515625 C 9.789062 -6.953125 9.050781 -7.171875 8.125 -7.171875 L 4.015625 -7.171875 L 4.015625 -1.890625 Z M 8.125 -1.890625 "/></g></g></g><g fill="#23d3d3" fill-opacity="1"><g transform="translate(101.752938, 19.539546)"><g><path d="M 10.015625 -10.671875 C 10.421875 -10.515625 10.625 -10.257812 10.625 -9.90625 C 10.625 -9.78125 10.582031 -9.625 10.5 -9.4375 L 4.46875 4.125 C 4.3125 4.53125 4.054688 4.734375 3.703125 4.734375 C 3.566406 4.734375 3.410156 4.691406 3.234375 4.609375 C 2.835938 4.441406 2.640625 4.1875 2.640625 3.84375 C 2.640625 3.6875 2.679688 3.53125 2.765625 3.375 L 4.734375 -1.0625 L 0.296875 -9.484375 C 0.234375 -9.597656 0.203125 -9.734375 0.203125 -9.890625 C 0.203125 -10.054688 0.253906 -10.210938 0.359375 -10.359375 C 0.460938 -10.503906 0.597656 -10.617188 0.765625 -10.703125 C 0.890625 -10.753906 1.019531 -10.78125 1.15625 -10.78125 C 1.53125 -10.78125 1.804688 -10.59375 1.984375 -10.21875 L 5.59375 -3.046875 L 8.765625 -10.203125 C 8.941406 -10.585938 9.195312 -10.78125 9.53125 -10.78125 C 9.707031 -10.78125 9.867188 -10.742188 10.015625 -10.671875 Z M 10.015625 -10.671875 "/></g></g></g><g fill="#23d3d3" fill-opacity="1"><g transform="translate(112.365103, 19.539546)"><g><path d="M 6.359375 -1.96875 C 6.597656 -1.96875 6.800781 -1.875 6.96875 -1.6875 C 7.132812 -1.507812 7.21875 -1.273438 7.21875 -0.984375 C 7.21875 -0.691406 7.109375 -0.453125 6.890625 -0.265625 C 6.671875 -0.0859375 6.390625 0 6.046875 0 L 5.6875 0 C 5.050781 0 4.460938 -0.164062 3.921875 -0.5 C 3.390625 -0.832031 2.972656 -1.285156 2.671875 -1.859375 C 2.367188 -2.441406 2.21875 -3.097656 2.21875 -3.828125 L 2.21875 -8.6875 L 1.3125 -8.6875 C 1.039062 -8.6875 0.816406 -8.765625 0.640625 -8.921875 C 0.472656 -9.078125 0.390625 -9.273438 0.390625 -9.515625 C 0.390625 -9.773438 0.472656 -9.984375 0.640625 -10.140625 C 0.816406 -10.304688 1.039062 -10.390625 1.3125 -10.390625 L 2.21875 -10.390625 L 2.21875 -13.21875 C 2.21875 -13.507812 2.3125 -13.742188 2.5 -13.921875 C 2.6875 -14.109375 2.925781 -14.203125 3.21875 -14.203125 C 3.5 -14.203125 3.734375 -14.109375 3.921875 -13.921875 C 4.109375 -13.742188 4.203125 -13.507812 4.203125 -13.21875 L 4.203125 -10.390625 L 5.875 -10.390625 C 6.144531 -10.390625 6.363281 -10.304688 6.53125 -10.140625 C 6.707031 -9.984375 6.796875 -9.773438 6.796875 -9.515625 C 6.796875 -9.273438 6.707031 -9.078125 6.53125 -8.921875 C 6.363281 -8.765625 6.144531 -8.6875 5.875 -8.6875 L 4.203125 -8.6875 L 4.203125 -3.828125 C 4.203125 -3.296875 4.34375 -2.851562 4.625 -2.5 C 4.914062 -2.144531 5.269531 -1.96875 5.6875 -1.96875 Z M 6.359375 -1.96875 "/></g></g></g><g fill="#23d3d3" fill-opacity="1"><g transform="translate(120.260243, 19.539546)"><g><path d="M 11.453125 -5.5625 C 11.453125 -5.3125 11.363281 -5.101562 11.1875 -4.9375 C 11.019531 -4.769531 10.804688 -4.6875 10.546875 -4.6875 L 3.046875 -4.6875 C 3.191406 -3.769531 3.609375 -3.023438 4.296875 -2.453125 C 4.992188 -1.890625 5.84375 -1.609375 6.84375 -1.609375 C 7.226562 -1.609375 7.632812 -1.679688 8.0625 -1.828125 C 8.488281 -1.972656 8.84375 -2.148438 9.125 -2.359375 C 9.300781 -2.503906 9.515625 -2.578125 9.765625 -2.578125 C 10.015625 -2.578125 10.210938 -2.515625 10.359375 -2.390625 C 10.597656 -2.191406 10.71875 -1.96875 10.71875 -1.71875 C 10.71875 -1.476562 10.613281 -1.28125 10.40625 -1.125 C 9.957031 -0.769531 9.398438 -0.476562 8.734375 -0.25 C 8.078125 -0.03125 7.445312 0.078125 6.84375 0.078125 C 5.757812 0.078125 4.789062 -0.148438 3.9375 -0.609375 C 3.082031 -1.078125 2.414062 -1.722656 1.9375 -2.546875 C 1.457031 -3.378906 1.21875 -4.320312 1.21875 -5.375 C 1.21875 -6.425781 1.441406 -7.367188 1.890625 -8.203125 C 2.347656 -9.035156 2.976562 -9.6875 3.78125 -10.15625 C 4.59375 -10.625 5.515625 -10.859375 6.546875 -10.859375 C 7.554688 -10.859375 8.425781 -10.632812 9.15625 -10.1875 C 9.894531 -9.738281 10.460938 -9.113281 10.859375 -8.3125 C 11.253906 -7.507812 11.453125 -6.59375 11.453125 -5.5625 Z M 6.546875 -9.15625 C 5.585938 -9.15625 4.804688 -8.890625 4.203125 -8.359375 C 3.609375 -7.835938 3.234375 -7.140625 3.078125 -6.265625 L 9.640625 -6.265625 C 9.515625 -7.140625 9.179688 -7.835938 8.640625 -8.359375 C 8.109375 -8.890625 7.410156 -9.15625 6.546875 -9.15625 Z M 6.546875 -9.15625 "/></g></g></g><g clip-path="url(#1babc639f7)"><g clip-path="url(#d70127883a)"><path fill="#23d3d3" d="M 7.65625 2.507812 L 29.484375 2.507812 L 29.484375 23.128906 L 7.65625 23.128906 Z M 7.65625 2.507812 " fill-opacity="1" fill-rule="nonzero"/></g></g><g clip-path="url(#68378407e9)"><path fill="#ffffff" d="M 26.308594 8.710938 L 26.308594 18.628906 C 26.308594 19.59375 25.601562 20.320312 24.71875 20.320312 L 12.933594 20.320312 C 11.472656 20.320312 10.828125 19.695312 10.828125 17.847656 L 10.828125 10.722656 L 12.871094 10.722656 L 12.871094 8.710938 Z M 12.871094 11.699219 L 11.800781 11.699219 L 11.800781 17.847656 C 11.800781 18.792969 12.027344 19.246094 12.316406 19.246094 C 12.664062 19.246094 12.871094 18.792969 12.871094 17.847656 Z M 25.335938 9.683594 L 13.84375 9.683594 L 13.84375 17.847656 C 13.84375 18.503906 13.722656 18.976562 13.535156 19.347656 L 24.71875 19.347656 C 25.089844 19.347656 25.335938 18.917969 25.335938 18.628906 Z M 18.351562 13.722656 L 15.503906 13.722656 L 15.503906 13.351562 L 18.351562 13.351562 Z M 18.351562 14.933594 L 15.503906 14.933594 L 15.503906 14.5625 L 18.351562 14.5625 Z M 18.351562 16.105469 L 15.503906 16.105469 L 15.503906 15.734375 L 18.351562 15.734375 Z M 18.351562 17.234375 L 15.503906 17.234375 L 15.503906 16.863281 L 18.351562 16.863281 Z M 16.136719 11.441406 L 22.972656 11.441406 L 22.972656 12.128906 L 16.136719 12.128906 Z M 19.378906 13.351562 L 23.753906 13.351562 L 23.753906 16.84375 L 19.378906 16.84375 Z M 19.378906 13.351562 " fill-opacity="1" fill-rule="nonzero"/></g></svg>